<svg width="128" height="23" viewBox="0 0 128 23" fill="none" xmlns="http://www.w3.org/2000/svg">
<path d="M0.136 6.488H5.608V1.496L6.504 0.599998H11.496L5.608 6.488H18.984V10.008H9.096V19.448H22.536V23H9.096L5.576 19.48V10.008H3.656L0.136 6.488ZM23.9838 23V6.488H27.5358V9.976L31.0558 6.488H46.3838V10.008H27.5358V23H23.9838ZM48.0798 6.488H51.5998V23H48.0798V6.488ZM53.2888 9.976L56.8408 6.488H72.1688L75.6888 10.008V23H72.1688V10.008H56.8408V23H53.2888V9.976ZM77.3848 6.488H80.9048V23H77.3848V6.488ZM80.9297 6.488H86.4017V1.496L87.2977 0.599998H92.2897L86.4017 6.488H99.7777V10.008H89.8897V19.448H103.33V23H89.8897L86.3697 19.48V10.008H84.4497L80.9297 6.488ZM104.778 8.536V6.488H108.33V7.096L116.01 14.776L123.69 7.096V6.488H127.21V8.536L117.77 18.008V23H114.218V18.008L104.778 8.536Z" fill="black"/>
</svg>
