<svg width="696" height="429" viewBox="0 0 696 429" fill="none" xmlns="http://www.w3.org/2000/svg">
<rect width="696" height="429" fill="#121212"/>
<g clip-path="url(#clip0_305_142)">
<path d="M253.027 201.891C257.398 201.891 260.939 203.822 262.433 205.257L259.943 208.292C258.726 207.188 256.015 205.699 253.027 205.699C247.549 205.699 244.119 209.451 244.119 214.583C244.119 219.715 247.383 223.467 253.082 223.467C256.402 223.467 259.279 221.701 260.497 220.487L262.876 223.633C261.382 225.178 257.619 227.275 253.027 227.275C244.949 227.275 239.969 221.867 239.969 214.528C239.969 207.299 245.115 201.891 253.027 201.891Z" fill="white"/>
<path d="M277.925 201.891C285.395 201.891 290.817 207.299 290.817 214.638C290.817 221.977 285.395 227.385 277.925 227.385C270.456 227.385 265.033 221.977 265.033 214.638C265.033 207.299 270.456 201.891 277.925 201.891ZM277.925 223.522C282.96 223.522 286.723 219.715 286.723 214.638C286.723 209.506 283.016 205.754 277.925 205.754C272.89 205.754 269.128 209.561 269.128 214.638C269.128 219.715 272.89 223.522 277.925 223.522Z" fill="white"/>
<path d="M316.491 219.715C316.491 223.302 314.167 226.778 308.247 226.778H295.244V202.443H307.472C312.452 202.443 315.274 205.478 315.274 208.954C315.274 210.886 314.389 212.651 312.231 214.086C314.389 214.804 316.491 216.404 316.491 219.715ZM299.228 206.25V212.762L306.974 212.707C309.741 212.707 311.18 211.162 311.18 209.341C311.18 207.685 309.962 206.25 307.528 206.25H299.228ZM308.468 222.97C311.29 222.97 312.397 221.425 312.397 219.715C312.397 217.894 311.124 216.349 308.579 216.349H299.283V222.97H308.468Z" fill="white"/>
<path d="M332.537 214.252L343.326 226.778H338.015L328.996 216.128H324.348V226.778H320.309V202.443H324.348V212.486H328.996L337.793 202.443H343.16L332.537 214.252Z" fill="white"/>
<path d="M355.72 201.891C363.19 201.891 368.612 207.299 368.612 214.638C368.612 221.977 363.19 227.385 355.72 227.385C348.251 227.385 342.828 221.977 342.828 214.638C342.828 207.299 348.251 201.891 355.72 201.891ZM355.72 223.522C360.755 223.522 364.518 219.715 364.518 214.638C364.518 209.506 360.811 205.754 355.72 205.754C350.685 205.754 346.923 209.561 346.923 214.638C346.923 219.715 350.685 223.522 355.72 223.522Z" fill="white"/>
<path d="M395.67 202.443H399.543V226.778H395.504V208.678L387.481 219.384H385.047L377.024 208.678V226.778H372.984V202.443H376.858L386.264 214.914L395.67 202.443Z" fill="white"/>
<path d="M417.913 212.375C423.28 212.375 426.213 215.521 426.213 219.549C426.213 223.577 423.28 226.778 418.19 226.778H404.91V202.443H423.944V206.25H408.949V212.375H417.913ZM418.024 222.97C420.79 222.97 422.063 221.425 422.063 219.604C422.063 217.783 420.79 216.238 418.024 216.238H408.949V222.97H418.024Z" fill="white"/>
<path d="M448.511 226.778L445.855 220.708H434.291L431.635 226.778H427.264L437.887 202.443H442.314L452.937 226.778H448.511ZM435.895 217.066H444.306L440.1 207.354L435.895 217.066Z" fill="white"/>
<path d="M474.018 202.443H478.057V226.778H474.018V216.349H459.908V226.778H455.869V202.443H459.908V212.541H474.018V202.443Z" fill="white"/>
<path d="M495.654 214.252L506.499 226.778H501.132L492.113 216.128H487.465V226.778H483.426V202.443H487.465V212.486H492.113L500.91 202.443H506.278L495.654 214.252Z" fill="white"/>
<path d="M191.664 214.638C191.664 225.785 200.738 234.834 211.971 234.834C212.247 234.834 212.524 234.834 212.801 234.834V227.164H211.971C204.999 227.164 199.41 221.536 199.41 214.638C199.41 207.74 205.054 202.112 211.971 202.112H212.801V194.386C212.524 194.386 212.247 194.386 211.971 194.386C200.738 194.386 191.664 203.436 191.664 214.638Z" fill="white"/>
<path d="M216.009 194.772V205.312H211.97C206.769 205.312 202.619 209.451 202.619 214.638C202.619 219.77 206.824 223.964 211.97 223.964H216.009V234.503C225.25 232.627 232.221 224.46 232.221 214.693C232.221 204.816 225.25 196.649 216.009 194.772Z" fill="white"/>
</g>
<defs>
<clipPath id="clip0_305_142">
<rect width="315" height="41" fill="white" transform="translate(191 194)"/>
</clipPath>
</defs>
</svg>
